<svg width="64" height="64" viewBox="0 0 64 64" fill="none" xmlns="http://www.w3.org/2000/svg">
<path d="M50.7359 54.294C53.0181 54.294 54.8681 52.4439 54.8681 50.1617C54.8681 47.8796 53.0181 46.0295 50.7359 46.0295C48.4537 46.0295 46.6036 47.8796 46.6036 50.1617C46.6036 52.4439 48.4537 54.294 50.7359 54.294Z" fill="#DBD5D7"/>
<path d="M38.4558 33.2437C38.3211 33.1963 38.1857 33.151 38.0496 33.1079C38.116 32.7322 38.1496 32.3514 38.15 31.9699V31.9695C38.1499 28.1654 36.564 29.18 36.409 25.6309C36.4074 25.525 36.4042 25.4191 36.3994 25.3132C36.3978 25.2266 36.3966 25.1385 36.3966 25.0469L36.3831 25.0282C36.2448 23.1574 35.6146 21.4114 34.611 19.8992C34.7967 19.4674 34.9775 19.0335 35.1533 18.5975C35.4095 17.964 35.6554 17.3264 35.891 16.685C36.1341 16.0233 36.3698 15.3589 36.5981 14.692C36.8232 14.0261 37.042 13.3581 37.2544 12.688C37.4646 12.027 37.6579 11.3727 37.8419 10.7435C38.0165 10.1413 38.1856 9.53758 38.3494 8.93237C38.5069 8.36137 38.6411 7.81987 38.7714 7.33337L39.1054 6.03162C39.2 5.655 39.2804 5.344 39.337 5.1L39.377 4.931L39.4078 4.78475C39.4161 4.742 39.4269 4.69775 39.4328 4.66262L39.4491 4.56487C39.4553 4.53325 39.4585 4.51012 39.4601 4.489L39.4664 4.434L39.4725 4.38737L39.5738 3.61025C39.6705 2.86762 39.147 2.18725 38.4044 2.0905C38.315 2.0794 38.2249 2.07668 38.135 2.08237L38.0368 2.08925L37.9144 2.0995C37.8645 2.10325 37.8084 2.11075 37.7485 2.12125L37.5415 2.15762C37.4653 2.1725 37.3893 2.19325 37.3016 2.215C37.2136 2.23725 37.1226 2.26212 37.0279 2.2925C36.9273 2.32484 36.8276 2.35951 36.7286 2.3965C36.3108 2.54912 35.8378 2.77575 35.3384 3.0705C34.7971 3.39435 34.2803 3.75749 33.7921 4.157C33.2695 4.5835 32.745 5.07137 32.2345 5.60962C31.7238 6.14787 31.2295 6.73637 30.7578 7.36362C30.2787 8.00097 29.8343 8.66363 29.4265 9.34875C29.0123 10.0446 28.6313 10.7598 28.2848 11.4917C27.7755 12.5755 27.3428 13.6877 27.0026 14.7905C26.0608 14.5829 25.0993 14.4784 24.1349 14.479C23.9994 14.479 23.8646 14.4817 23.7303 14.4857C23.9312 13.8882 24.1271 13.2891 24.3179 12.6882C24.5281 12.0272 24.7214 11.373 24.9054 10.7437C25.08 10.1416 25.2491 9.53783 25.4129 8.93262C25.5704 8.36162 25.7046 7.82012 25.8349 7.33362L26.1689 6.03187C26.2635 5.65525 26.3439 5.34425 26.4005 5.10025L26.4405 4.93125L26.4713 4.785C26.4796 4.74225 26.4904 4.698 26.4963 4.66287L26.5126 4.56512C26.5188 4.5335 26.522 4.51037 26.5236 4.48925L26.5299 4.43425L26.536 4.38762L26.6373 3.6105C26.734 2.86787 26.2105 2.1875 25.4679 2.09075C25.3785 2.07965 25.2884 2.07693 25.1985 2.08262L25.1003 2.0895L24.9779 2.09975C24.928 2.1035 24.8719 2.111 24.812 2.1215L24.605 2.15787C24.5288 2.17275 24.4528 2.1935 24.3651 2.21525C24.2771 2.2375 24.1861 2.26237 24.0914 2.29275C23.9908 2.32509 23.8911 2.35976 23.7921 2.39675C23.3743 2.54937 22.9013 2.776 22.4019 3.07075C21.8606 3.3946 21.3438 3.75774 20.8556 4.15725C20.333 4.58375 19.8085 5.07162 19.298 5.60987C18.7873 6.14812 18.293 6.73662 17.8213 7.36387C17.3422 8.00122 16.8978 8.66388 16.49 9.349C16.0758 10.0449 15.6948 10.76 15.3483 11.492C14.6598 12.9575 14.1099 14.475 13.7418 15.9505C13.37 17.4251 13.1713 18.854 13.124 20.1279C13.1157 20.3571 13.112 20.5866 13.1126 20.816C12.4313 22.0946 12.004 23.5092 11.8898 25.0036L11.8578 25.0472C11.8578 29.298 10.1184 27.7974 10.1184 31.9704C10.1184 35.6279 13.1273 38.62 16.938 38.8739C16.6254 39.9284 16.4669 41.0227 16.4676 42.1226C16.4676 45.5782 18.005 48.6745 20.4329 50.7656V58.755C20.4329 61.6297 26.1318 61.8351 26.1318 58.755V56.6969V53.68V53.3935C26.1434 53.3952 26.1551 53.3962 26.1668 53.398C26.3336 52.7375 27.0831 52.8104 27.1925 53.5044C27.1971 53.5046 27.2016 53.5052 27.2063 53.5055V58.755C27.2063 61.6297 32.9051 61.8351 32.9051 58.755V53.3705C34.7086 53.6689 36.5976 54.2614 38.4553 55.5186C38.4871 55.5402 38.5186 55.5597 38.5505 55.5809H36.257C32.8789 55.5809 32.6376 61.016 36.257 61.016H42.5204C47.0574 61.016 50.7354 57.338 50.7354 52.8009C50.7354 52.6822 50.7314 52.5645 50.7264 52.447C50.7703 49.1631 51.0938 37.7276 38.4558 33.2437Z" fill="#B4ACAE"/>
<path d="M18.2805 22.4501C17.4933 22.6997 16.6526 22.2639 16.403 21.4765L16.3841 21.417L16.3683 21.3669C16.3581 21.3339 16.3411 21.2846 16.3236 21.2208L16.2931 21.1138C16.2904 21.1035 16.2873 21.0948 16.285 21.0828L16.2788 21.0425L16.2655 20.9565L16.2374 20.763L16.2121 20.5496C16.1942 20.3994 16.1796 20.2488 16.1683 20.098C16.1555 19.9381 16.1503 19.7635 16.1436 19.5798C16.1409 19.4862 16.1401 19.3925 16.1411 19.2989C16.1416 19.2026 16.1411 19.1021 16.1438 19.0026C16.1446 18.9021 16.1504 18.7998 16.1553 18.6946C16.1598 18.589 16.1659 18.4824 16.173 18.3743C16.2038 17.94 16.2539 17.4756 16.33 16.9934C16.4091 16.4899 16.5085 15.9899 16.628 15.4945C16.6892 15.2342 16.7571 14.9755 16.8316 14.7188L16.9435 14.3261C16.9813 14.1945 17.0256 14.0646 17.067 13.933C17.2358 13.4078 17.4301 12.882 17.64 12.3618C17.8519 11.8437 18.0827 11.3335 18.332 10.8324L18.5203 10.4624L18.7193 10.1004C18.8504 9.86088 18.9825 9.62388 19.1249 9.39675C19.1936 9.2825 19.2644 9.1695 19.335 9.05788L19.4399 8.89125L19.5485 8.72888L19.768 8.41063C19.8414 8.30613 19.9093 8.20238 19.9875 8.103C20.2866 7.70138 20.585 7.33163 20.8873 7.0005C21.1636 6.6943 21.4578 6.40471 21.7684 6.13325C21.837 6.07303 21.907 6.01447 21.9784 5.95763C22.0443 5.90342 22.1115 5.85065 22.1798 5.79938C22.302 5.70705 22.4277 5.61928 22.5565 5.53625C22.6694 5.45975 22.7886 5.39638 22.8834 5.34425C22.9325 5.31813 22.9743 5.2935 23.0184 5.273L23.1405 5.21938C23.2125 5.18763 23.2691 5.16713 23.3063 5.15263L23.3626 5.13125C23.4908 5.08276 23.63 5.07128 23.7644 5.09814C23.8987 5.125 24.0228 5.1891 24.1225 5.28313C24.2221 5.37717 24.2933 5.49733 24.328 5.62991C24.3626 5.76248 24.3592 5.90212 24.3183 6.03288L24.2755 6.16938L24.2635 6.20763C24.2554 6.23238 24.2453 6.2705 24.2286 6.31438L24.2023 6.38788C24.1926 6.4155 24.1816 6.453 24.1703 6.48888L24.1336 6.6055C24.1196 6.64488 24.1049 6.68675 24.09 6.73863C24.0748 6.78813 24.0599 6.84075 24.042 6.89338C24.0246 6.94675 24.0061 6.99925 23.9888 7.06338C23.9553 7.19063 23.9095 7.3105 23.8706 7.4595C23.8314 7.60713 23.7806 7.75138 23.7378 7.92075C23.7161 8.004 23.69 8.08675 23.6649 8.172C23.6398 8.25763 23.6163 8.34925 23.5913 8.44013C23.5678 8.53263 23.5376 8.62188 23.5116 8.71788L23.4316 9.01063L23.2594 9.625C23.2023 9.8375 23.137 10.0544 23.0754 10.277C23.0186 10.504 22.9429 10.7255 22.8806 10.9603C22.8179 11.1941 22.7433 11.4269 22.675 11.6671L22.5705 12.028L22.4598 12.3913C22.3169 12.8796 22.1581 13.3721 22.0085 13.8679C21.9296 14.1145 21.8478 14.36 21.7726 14.6069C21.7353 14.73 21.6955 14.8524 21.6531 14.9739L21.5338 15.3385L21.4158 15.7003L21.2936 16.0568L21.1758 16.4095C21.1376 16.5265 21.0939 16.641 21.0538 16.7555C20.8981 17.2139 20.7359 17.6539 20.586 18.0696L20.3623 18.6731C20.285 18.8673 20.2203 19.0544 20.1495 19.233C20.0106 19.5908 19.8861 19.914 19.7718 20.1984C19.714 20.3394 19.6674 20.4699 19.6144 20.5916C19.5663 20.7108 19.5259 20.8184 19.4826 20.9171C19.4116 21.0966 19.3391 21.1888 19.3029 21.3398C19.2839 21.4023 19.2648 21.4499 19.2538 21.4821L19.2361 21.5309C19.0816 21.9509 18.7395 22.3046 18.2805 22.4501ZM32.0545 21.5312L32.0721 21.4825C32.0833 21.4503 32.1023 21.4026 32.1213 21.3401C32.1575 21.1891 32.2301 21.097 32.301 20.9175C32.3443 20.8186 32.3846 20.7111 32.4328 20.592C32.4858 20.4703 32.5324 20.3398 32.5901 20.1988C32.7044 19.9144 32.829 19.5911 32.9679 19.2334C33.0386 19.0548 33.1034 18.8676 33.1806 18.6735L33.4044 18.07C33.5543 17.6543 33.7165 17.2141 33.8721 16.7559C33.9124 16.6414 33.9561 16.5269 33.9941 16.4099L34.112 16.0571L34.2341 15.7006L34.3521 15.3389L34.4714 14.9743C34.5134 14.853 34.5538 14.7308 34.5909 14.6073C34.6661 14.3604 34.7479 14.1149 34.8268 13.8683C34.9764 13.3725 35.1351 12.88 35.2779 12.3916L35.3886 12.0284L35.4931 11.6675C35.5614 11.4273 35.636 11.1946 35.6988 10.9606C35.761 10.7259 35.8368 10.5044 35.8935 10.2774C35.9553 10.0549 36.0204 9.83788 36.0775 9.62538L36.2498 9.011L36.3298 8.71825C36.3558 8.62238 36.3859 8.533 36.4094 8.4405C36.4344 8.34963 36.4579 8.25788 36.483 8.17238C36.5081 8.08713 36.5343 8.00438 36.5559 7.92113C36.5988 7.75175 36.6495 7.6075 36.6888 7.45988C36.7276 7.31088 36.7734 7.19113 36.8069 7.06375C36.8244 6.99975 36.8428 6.94725 36.8601 6.89375C36.8781 6.84113 36.8929 6.78863 36.9081 6.739C36.9231 6.68713 36.9378 6.64525 36.9518 6.60588L36.9884 6.48925C36.9998 6.45338 37.0108 6.41588 37.0204 6.38825L37.0468 6.31475C37.0634 6.27075 37.0735 6.23263 37.0816 6.208L37.0936 6.16975L37.1364 6.03325C37.1773 5.9025 37.1807 5.76286 37.1461 5.63028C37.1115 5.49771 37.0403 5.37754 36.9406 5.28351C36.8409 5.18948 36.7168 5.12537 36.5825 5.09851C36.4481 5.07166 36.3089 5.08313 36.1808 5.13163L36.1244 5.153C36.0874 5.1675 36.0306 5.188 35.9586 5.21975L35.8365 5.27338C35.7924 5.29388 35.7506 5.3185 35.7015 5.34463C35.6066 5.39675 35.4875 5.46025 35.3746 5.53663C35.1741 5.666 34.9811 5.80668 34.7965 5.958C34.7268 6.01388 34.6554 6.0725 34.5865 6.13363C34.276 6.40512 33.9818 6.69471 33.7054 7.00088C33.403 7.332 33.1048 7.70175 32.8056 8.10338C32.7274 8.20275 32.6595 8.30638 32.5861 8.411L32.3666 8.72925L32.258 8.89163L32.1531 9.05825C32.0825 9.16988 32.0119 9.28288 31.943 9.39713C31.8006 9.62425 31.6685 9.86125 31.5374 10.1008L31.3384 10.4628L31.1501 10.8328C30.9009 11.3339 30.6701 11.8441 30.4581 12.3621C30.2483 12.8823 30.0539 13.4081 29.8851 13.9334C29.8438 14.065 29.7994 14.1949 29.7616 14.3265L29.6498 14.7191C29.5752 14.9759 29.5073 15.2346 29.4461 15.4949C29.3267 15.9903 29.2273 16.4903 29.1481 16.9938C29.0761 17.4516 29.0237 17.9123 28.9911 18.3746C28.984 18.4828 28.9778 18.5893 28.9734 18.695C28.9685 18.8001 28.9628 18.9025 28.9619 19.003C28.9591 19.1025 28.9598 19.203 28.9593 19.2993C28.9581 19.3929 28.959 19.4865 28.9618 19.5801C28.9685 19.764 28.9738 19.9386 28.9864 20.0984C28.9995 20.2618 29.0131 20.4143 29.0303 20.55L29.0555 20.7634L29.0836 20.9569L29.0969 21.0429L29.1031 21.0831C29.1054 21.095 29.1085 21.1039 29.1113 21.1141L29.1418 21.2211C29.1593 21.285 29.1764 21.3341 29.1864 21.3673L29.2023 21.4174L29.2211 21.4769C29.4708 22.2641 30.3114 22.7001 31.0986 22.4505C31.5584 22.3046 31.9006 21.9509 32.0545 21.5312Z" fill="#FFC7EF"/>
<path d="M31.3185 26.5279C32.3044 26.5279 33.1036 27.3255 33.1036 28.313V30.5048C33.1036 31.4906 32.3044 32.2901 31.3185 32.2901C30.3341 32.2901 29.5349 31.4906 29.5349 30.5048V28.313C29.5349 27.3255 30.3342 26.5279 31.3185 26.5279ZM16.9546 26.5279C15.9687 26.5279 15.171 27.3255 15.171 28.313V30.5048C15.171 31.4906 15.9687 32.2901 16.9546 32.2901C17.9405 32.2901 18.7365 31.4906 18.7365 30.5048V28.313C18.7365 27.3255 17.9405 26.5279 16.9546 26.5279ZM26.3336 33.8418C26.2508 33.7507 26.1352 33.6963 26.0123 33.6904C25.8893 33.6845 25.7691 33.7276 25.6779 33.8103C25.4459 34.0205 24.7232 34.5661 24.1726 34.5661C23.6112 34.5661 22.8149 34.0103 22.5556 33.7965C22.4605 33.7208 22.3396 33.6855 22.2187 33.698C22.0978 33.7105 21.9866 33.7699 21.9091 33.8635C21.8315 33.957 21.7937 34.0772 21.8037 34.1983C21.8138 34.3195 21.8709 34.4318 21.9629 34.5113C22.064 34.5951 22.8394 35.2198 23.6704 35.4269V37.0534C23.6704 37.1765 23.7193 37.2947 23.8064 37.3817C23.8935 37.4688 24.0116 37.5178 24.1347 37.5178C24.2579 37.5178 24.376 37.4688 24.4631 37.3817C24.5502 37.2947 24.5991 37.1765 24.5991 37.0534V35.4439C25.4485 35.2548 26.207 34.5846 26.303 34.4969C26.3939 34.4141 26.4482 34.2985 26.454 34.1757C26.4597 34.0528 26.4164 33.9327 26.3336 33.8418Z" fill="#2B3B47"/>
<path d="M39.147 33.2438C39.147 37.0678 35.8599 40.1669 31.8041 40.1669C29.4635 40.1669 28.3837 40.5006 27.5135 40.7978C27.3272 40.861 27.1654 40.981 27.0508 41.1408C26.9361 41.3007 26.8743 41.4924 26.8741 41.6891V41.7818C26.8741 42.2909 26.462 42.7066 25.9529 42.7071C25.3144 42.7078 25.0007 42.5584 24.8466 42.4096C24.7659 42.3316 24.6352 42.3286 24.5596 42.4116C24.425 42.5594 24.1595 42.7071 23.6357 42.7071H23.4471C23.2017 42.7071 22.9663 42.6096 22.7928 42.4361C22.6192 42.2625 22.5217 42.0272 22.5217 41.7818V40.8576C21.0645 40.5474 19.3241 40.1669 16.8252 40.1669C16.5289 40.1669 16.4974 39.9646 16.8565 38.8675C17.0569 38.883 17.2589 38.8929 17.4634 38.8929C21.681 38.8929 22.1031 39.9771 24.2846 39.9771C26.4661 39.9771 26.5894 38.8929 30.8071 38.8929C34.8627 38.8929 38.15 35.7938 38.15 31.9698C38.15 30.7145 37.7938 29.5388 37.1741 28.524C38.3974 29.7606 39.147 31.4193 39.147 33.2438ZM38.7743 55.5806C38.7743 53.1961 39.3017 51.063 40.2596 49.574C41.3715 47.8459 43.016 46.9695 45.1475 46.9695C45.25 46.9695 45.3483 46.9288 45.4208 46.8563C45.4933 46.7838 45.534 46.6855 45.534 46.583C45.534 46.4805 45.4933 46.3822 45.4208 46.3097C45.3483 46.2372 45.25 46.1965 45.1475 46.1965C39.8787 46.1965 38.0014 51.044 38.0014 55.5805C38.0032 55.6818 38.0447 55.7783 38.1169 55.8493C38.1892 55.9203 38.2865 55.9601 38.3878 55.9601C38.4891 55.9601 38.5863 55.9204 38.6586 55.8494C38.7309 55.7784 38.7724 55.6819 38.7743 55.5806Z" fill="#877F81"/>
<path d="M26.1737 38.9355C25.3094 38.9355 24.5574 38.6151 24.1694 38.1429C23.7814 38.6151 23.0295 38.9355 22.1651 38.9355C22.097 38.9355 22.03 38.9326 21.9634 38.9288V40.5296C21.9634 40.7751 22.0609 41.0105 22.2344 41.184C22.4079 41.3576 22.6433 41.4551 22.8887 41.4551H23.0774C24.1249 41.4551 24.1395 40.8643 24.1395 40.8643C24.1395 40.8643 24.1249 41.4551 25.3902 41.4551C25.6357 41.4551 25.8711 41.3576 26.0447 41.1841C26.2182 41.0105 26.3157 40.7751 26.3157 40.5296V38.9308C26.2685 38.9326 26.2216 38.9355 26.1737 38.9355Z" fill="#F4F3EF"/>
</svg>
